<?xml version="1.0" encoding="UTF-8"?>
<svg id="Layer_1" data-name="Layer 1" xmlns="http://www.w3.org/2000/svg" viewBox="0 0 583.19 583.46">
  <defs>
    <style>
      .cls-1 {
        stroke-width: 27px;
      }

      .cls-1, .cls-2 {
        fill: none;
        stroke: #000;
        stroke-linecap: round;
        stroke-miterlimit: 10;
      }

      .cls-2 {
        stroke-width: 28px;
      }
    </style>
  </defs>
  <path class="cls-2" d="M146.78,284.72s24.29,126.93,146.77,126.93,143.69-126.93,143.69-126.93"/>
  <circle class="cls-2" cx="99.18" cy="99.95" r="46.19"/>
  <path class="cls-2" d="M84.28,143.67s-66.82,13.89-70.28,96.67c-.15,3.67,2.79,6.74,6.46,6.74h160.08c3.56,0,6.47-2.88,6.46-6.44-.01-20.43-5.31-83.34-68.69-98.66"/>
  <g>
    <circle cx="292.02" cy="69.96" r="69.96"/>
    <path d="M267.49,104.47s-106.92,22.22-106.92,157.02h252.21c5.92,0,10.72-4.81,10.68-10.73-.19-31.97-9.02-125.82-104.3-148.86"/>
  </g>
  <circle class="cls-2" cx="481.35" cy="101.9" r="46.19"/>
  <path class="cls-2" d="M500.49,143.93c63.38,15.32,68.68,78.23,68.69,98.66,0,3.56-2.9,6.44-6.46,6.44h-106.41"/>
  <path class="cls-2" d="M466.46,145.62s-69.67,8.06-63.67,97.31"/>
  <polyline class="cls-1" points="568.39 284.72 568.39 325.17 500.52 353.91 487.44 389.58 511.3 453.98 452.28 513.51 393.78 485.8 354.78 502.22 328.09 569.96 290.36 569.96 292.02 569.96 254.29 569.96 227.61 502.22 188.6 485.8 130.1 513.51 71.09 453.98 94.95 389.58 81.86 353.91 14 325.17 14 284.72"/>
</svg>