<?xml version="1.0" encoding="UTF-8"?>
<svg id="Layer_1" data-name="Layer 1" xmlns="http://www.w3.org/2000/svg" viewBox="0 0 575.84 611.02">
  <defs>
    <style>
      .cls-1 {
        fill: none;
        stroke: #000;
        stroke-miterlimit: 10;
        stroke-width: 16px;
      }

      .cls-2 {
        fill: #040404;
      }
    </style>
  </defs>
  <path class="cls-2" d="M375.47,228.86l-56.79-14.74-27.67-49.15-29.66,48.6-55.69,13.11,36.59,43.67-6.01,55.11,54.87-21.25,53.79,24.01-4.37-59.5,34.94-39.86ZM290.56,288.37l-36.3,18.56,2.73-41-28.39-31.61,41.5-6.01,20.92-36.04,20.03,38.23,42.59,6-31.12,29.43,6.01,41-37.96-18.56Z"/>
  <path class="cls-2" d="M80.82,249.61l-12.38-37.86-26.2,24.38-42.23,1.82,21.12,33.86-13.83,37.91,38.59-6.24,30.93,24.74,5.27-40.76,30.41-19.29-31.67-18.56ZM70.62,283.45l-3.29,23.48-20.01-17.29-23.3,6.92,7.29-26.57-9.11-20.38,25.48,1.45,15.66-17.83,7.29,25.11,22.93,11.66-22.93,13.47Z"/>
  <path class="cls-2" d="M575.84,238.32l-34.94,3.1-29.85-26.03-10.92,34.22-33.49,17.83,33.12,20.01,6.92,40.76,29.49-24.74,39.67,3.45-13.47-35.86,13.47-32.75ZM558.73,296.19l-27.3-4.37-17.47,17.89-1.82-26.63-21.11-15.64,21.48-11.29,5.1-21.48,17.83,14.93h26.56l-11.27,22.6,8,23.99Z"/>
  <path class="cls-2" d="M298.48,376.45v226.37c0,4.81-4.12,8.58-8.91,8.16h0c-4.23-.38-7.46-3.92-7.46-8.16v-226.37c0-4.52,3.67-8.19,8.19-8.19h0c4.52,0,8.19,3.67,8.19,8.19Z"/>
  <path class="cls-2" d="M117,332.24c54.82,51.64,74.5,123.23,68.07,209.66,2.37,7.64,10.01,9.83,15.29,2.18,11.29-88.67-11.33-163.65-72.43-223.13-9.28-2.64-16.65,2.55-10.92,11.28Z"/>
  <path class="cls-2" d="M468.53,325.28c-54.82,51.64-74.5,123.23-68.07,209.66-2.37,7.64-10.01,9.83-15.29,2.18-11.29-88.67,11.33-163.65,72.43-223.13,9.28-2.64,16.65,2.55,10.92,11.28Z"/>
  <path class="cls-2" d="M154.63,116.89c27.12,18.62,41.34,45.84,46.23,79.27,1.84,5.04,13.99,14.8,17.11,0-6.19-39.92-23.3-70.37-51.32-91.36-9.1-3.58-16.56.91-12.01,12.09Z"/>
  <path class="cls-2" d="M425.95,113.67c-27.12,18.62-41.34,45.84-46.23,79.27-1.84,5.04-13.99,14.8-17.11,0,6.19-39.92,23.3-70.37,51.32-91.36,9.1-3.58,16.56.91,12.01,12.09Z"/>
  <circle class="cls-1" cx="116.01" cy="79.03" r="29.37"/>
  <circle class="cls-1" cx="291.2" cy="37.37" r="29.37"/>
  <circle class="cls-1" cx="464.18" cy="79.43" r="29.37"/>
  <circle cx="291.2" cy="128.4" r="8.72"/>
  <circle cx="426.46" cy="223.47" r="8.72"/>
  <circle cx="154.8" cy="223.5" r="8.72"/>
  <circle cx="343.43" cy="427.6" r="8.72"/>
  <circle cx="238.79" cy="427.6" r="8.72"/>
</svg>