<?xml version="1.0" encoding="UTF-8"?>
<svg id="Layer_1" data-name="Layer 1" xmlns="http://www.w3.org/2000/svg" viewBox="0 0 565.57 590.6">
  <defs>
    <style>
      .cls-1, .cls-2, .cls-3, .cls-4 {
        stroke-miterlimit: 10;
      }

      .cls-1, .cls-3 {
        stroke: #161515;
      }

      .cls-1, .cls-3, .cls-4 {
        fill: none;
      }

      .cls-1, .cls-4 {
        stroke-width: 16px;
      }

      .cls-2 {
        fill: #030303;
        stroke-width: .5px;
      }

      .cls-2, .cls-4 {
        stroke: #030303;
      }

      .cls-3 {
        stroke-width: 15px;
      }
    </style>
  </defs>
  <polygon class="cls-2" points="159.84 244.34 136.4 316.54 153.86 313.79 175.01 240.25 159.84 244.34"/>
  <polygon class="cls-2" points="234.3 224.16 213.61 297.7 230.16 294.25 253.14 219.1 234.3 224.16"/>
  <polygon class="cls-2" points="470.08 163.03 450.32 237.49 460.2 233.81 483.87 160.16 470.08 163.03"/>
  <polygon class="cls-2" points="392.41 180.95 375.86 255.41 392.41 251.74 407.57 178.2 392.41 180.95"/>
  <polygon class="cls-2" points="315.19 201.18 294.97 280.69 312.89 278.39 332.66 198.42 315.19 201.18"/>
  <path class="cls-2" d="M178.22,403.63c-19.48,6.67-39.71,12.01-60.66,16.02-7.36-.61-8.26-7.89-2.14-12.33l57.6-14.94c9.81-1.37,13.72,6.2,5.21,11.26Z"/>
  <path class="cls-2" d="M184.89,494.87l-34.24,9.65c-7.13.92-9.2-9.88-3.84-11.49l32.56-10.57c8.27-3.91,12.87,10.11,5.51,12.41Z"/>
  <path class="cls-2" d="M495.06,392.69c-23.18,8.73-49.65,16.65-77.52,24.2-10.48-3.32-8.99-8.28-2.14-13.99,25.71-4.4,51.03-12.06,75.99-22.78,8.12,1.91,10.19,10.19,3.68,12.57Z"/>
  <path class="cls-2" d="M565.22,453.97l-55.15-226.13,9.19-5.98-19.76-72.62L126.29,244.34,462.27,83.97c4.2-3.1,6.36-8.28,5.97-16.09L426.41.32.35,211.29l32.63,58.37c-11.47,4.91-18.18,11.26-19.3,19.3l17.47,68.48,11.49.92,58.84,211.88c8.67,19.94,22.41,23.02,38.61,17.93,151.56-32.78,292.72-69.49,414.57-113.53,8-3.37,11.31-10.43,10.57-20.68ZM19.81,219.1l40.29-22.52-3.83,34.93c-11.95-.61-18.69,17.16-18.69,17.16l-17.77-29.57ZM105.6,268.59l47.19-13.18-16.4,53.93-57.46,14.4,9.81-24.83c10.03-6.15,15.35-16.53,16.85-30.33ZM116.32,230.29l-20.53,9.96c-2.76-7.51-16.86-9.96-16.86-9.96l6.43-45.35,35.86-15.94-4.91,61.29ZM226.94,237.49l-13.33,52.09-54.38,13.94,15.78-54.85,51.94-11.17ZM307.47,215.58l-12.5,51.16-57.92,15.63,16.09-53.32,54.33-13.48ZM384.44,195.66l-11.34,50.79-53.63,15.09,12.88-51.48,52.09-14.4ZM463.5,174.21l-16.55,53.01-48.8,13.03,9.42-51.32,55.92-14.71ZM490.46,169l12.06,44.44-35.42,8.88,16.78-53.32h6.58ZM185.58,196.58l-48.11,20.22,3.07-59.14,49.64-22.44s-5.52,60.75-4.6,61.36ZM207.03,186.17l4.29-60.99,50.56-26.04-2.46,63.88-52.4,23.14ZM282.59,148.79l1.65-60.98,48.11-21.76-2.15,59.44-47.61,23.29ZM351.35,116.6v-61.59l37.38-20.53-2.46,64.65-34.93,17.46ZM407.57,85.97l3.22-60.36,11.96-7.05,25.74,44.24-40.91,23.17ZM48.15,271.96c-3.48-12.18,5.88-26.06,18.84-27.62,10.66-1.29,21.64,6.01,23.9,16.59,2.75,12.86-8.43,25.65-21.15,26.2-9.37.41-18.94-5.85-21.6-15.16ZM129.04,574.85l-65.73-228.9,435.6-114.44c19.91,69.62,37.43,145.31,53.21,225.45-27.65,22.72-266.47,87.13-423.08,117.89Z"/>
  <path class="cls-2" d="M495.06,392.69c-23.18,8.73-49.65,16.65-77.52,24.2-10.48-3.32-8.99-8.28-2.14-13.99,25.71-4.4,51.03-12.06,75.99-22.78,8.12,1.91,10.19,10.19,3.68,12.57Z"/>
  <path class="cls-2" d="M178.22,403.63c-19.48,6.67-39.71,12.01-60.66,16.02-7.36-.61-8.26-7.89-2.14-12.33l57.6-14.94c9.81-1.37,13.72,6.2,5.21,11.26Z"/>
  <path class="cls-2" d="M184.89,494.87l-34.24,9.65c-7.13.92-9.2-9.88-3.84-11.49l32.56-10.57c8.27-3.91,12.87,10.11,5.51,12.41Z"/>
  <path class="cls-2" d="M519.03,127.87l39.76,7.35c6.32,5.78,6.56,10.53-3.45,13.56l-39.53-8.96c-4.42-6.57-2.9-10.34,3.22-11.95Z"/>
  <path class="cls-2" d="M508.23,96.15c-5.17,7.47-1.15,14.25,7.58,11.26,9.79-2.78,19.59-7.76,29.42-15.17,10-6.66,2.41-14.36-5.75-12.64-9.31,8.28-19.66,13.98-31.25,16.55Z"/>
  <path class="cls-2" d="M488.01,71.56c-1.95,9.54,6.09,13.1,12.64,6.66l15.17-23.67c4.94-7.93-3.22-14.59-10.8-7.35l-17.01,24.36Z"/>
  <path class="cls-2" d="M178.22,403.63c-19.48,6.67-39.71,12.01-60.66,16.02-7.36-.61-8.26-7.89-2.14-12.33l57.6-14.94c9.81-1.37,13.72,6.2,5.21,11.26Z"/>
  <path class="cls-2" d="M184.89,494.87l-34.24,9.65c-7.13.92-9.2-9.88-3.84-11.49l32.56-10.57c8.27-3.91,12.87,10.11,5.51,12.41Z"/>
  <path class="cls-2" d="M495.06,392.69c-23.18,8.73-49.65,16.65-77.52,24.2-10.48-3.32-8.99-8.28-2.14-13.99,25.71-4.4,51.03-12.06,75.99-22.78,8.12,1.91,10.19,10.19,3.68,12.57Z"/>
  <circle class="cls-1" cx="301.42" cy="400.54" r="81.24"/>
  <path class="cls-1" d="M339.17,401.47l-36.78,36.33c-5.28,5.21-14.22,2.76-16.1-4.42l-13.07-50.01c-1.88-7.18,4.72-13.7,11.88-11.73l49.85,13.69c7.15,1.96,9.5,10.94,4.22,16.15Z"/>
  <circle class="cls-3" cx="407.42" cy="331.19" r="10.24"/>
  <circle class="cls-3" cx="461.21" cy="311.93" r="10.24"/>
  <circle class="cls-4" cx="69.37" cy="265.67" r="37.26"/>
</svg>