<?xml version="1.0" encoding="UTF-8"?>
<svg id="Layer_1" data-name="Layer 1" xmlns="http://www.w3.org/2000/svg" viewBox="0 0 355.08 554.49">
  <defs>
    <style>
      .cls-1 {
        fill: #0c0c0c;
      }

      .cls-2 {
        fill: none;
        stroke: #0c0c0c;
        stroke-miterlimit: 10;
        stroke-width: 19px;
      }
    </style>
  </defs>
  <path class="cls-1" d="M213.84,45.3h-72.59c-12.09,0-21.89-8.98-21.89-20.05v-6.22c0-8.38,7.42-15.17,16.56-15.17h83.25c9.15,0,16.56,6.79,16.56,15.17v6.22c0,11.08-9.8,20.05-21.89,20.05ZM135.92,17.93c-.66,0-1.2.49-1.2,1.1v6.22c0,3.3,2.92,5.98,6.52,5.98h72.59c3.6,0,6.52-2.68,6.52-5.98v-6.22c0-.61-.54-1.1-1.2-1.1h-83.25Z"/>
  <rect class="cls-2" x="9.5" y="9.5" width="336.08" height="535.49" rx="22.14" ry="22.14"/>
  <path class="cls-2" d="M239.13,257.84l-118.33-68.91c-2.16-1.26-4.88.3-4.88,2.8v140.15c0,1.7,1.85,2.77,3.32,1.91l119.89-69.81c2.35-1.37,2.35-4.77,0-6.14Z"/>
  <path class="cls-1" d="M125.59,486.47h104.41c11.4,3.65,12.77,18.01,0,23.02l-104.41-.68c-13.22-4.1-12.31-18.47,0-22.34Z"/>
</svg>