<?xml version="1.0" encoding="UTF-8"?>
<svg id="Layer_1" data-name="Layer 1" xmlns="http://www.w3.org/2000/svg" viewBox="0 0 766.59 697.41">
  <defs>
    <style>
      .cls-1 {
        stroke-width: 22px;
      }

      .cls-1, .cls-2 {
        fill: none;
        stroke: #000;
        stroke-miterlimit: 10;
      }

      .cls-2 {
        stroke-width: 25px;
      }
    </style>
  </defs>
  <path class="cls-2" d="M440.02,612.52c46.13-45.53,74.72-108.79,74.72-178.72s-31.33-139.11-81.32-185.01c-15.82-14.53-33.51-27.06-52.67-37.17h0c-34.97-18.48-74.83-28.94-117.12-28.94-138.69,0-251.12,112.43-251.12,251.12s112.43,251.11,251.12,251.11c44.37,0,86.05-11.51,122.22-31.7"/>
  <path class="cls-2" d="M385.04,582.93c43.98-35.47,72.11-89.81,72.11-150.71s-29.63-118.09-75.61-153.48c-15.78-12.14-33.49-21.91-52.59-28.75-20.41-7.32-42.41-11.31-65.33-11.31-106.89,0-193.54,86.65-193.54,193.54s86.65,193.53,193.54,193.53c23.6,0,46.22-4.22,67.13-11.96"/>
  <path class="cls-2" d="M380.74,211.62h.01c25.09-14.02,52.84-23.84,82.29-28.54"/>
  <path class="cls-2" d="M542.96,183.09c119.68,19.14,211.13,122.86,211.13,247.94,0,138.69-112.43,251.12-251.12,251.12-42.3,0-82.16-10.46-117.13-28.94-20.14-10.63-38.66-23.93-55.09-39.42-48.58-45.79-78.9-110.73-78.9-182.76s29.58-135.35,77.1-181.04"/>
  <path class="cls-2" d="M381.54,278.74c-43.98,35.48-72.11,89.81-72.11,150.71s29.63,118.09,75.61,153.48c16.44,12.64,34.97,22.71,54.98,29.59,19.74,6.79,40.91,10.47,62.95,10.47,106.88,0,193.53-86.65,193.53-193.54s-86.65-193.53-193.53-193.53c-24.52,0-47.97,4.56-69.55,12.87"/>
  <path class="cls-1" d="M399.17,47.72c44.82-72.18,107.05-14.35,107.05-14.35,0,0,57.19-58.85,100.32,14.35,39.47,67-75.18,145.74-103.68,164.81-28.49-19.05-143.97-99.93-103.69-164.81Z"/>
</svg>